<?xml version="1.0" encoding="iso-8859-1"?>
<!-- Uploaded to: SVG Repo, www.svgrepo.com, Generator: SVG Repo Mixer Tools -->
<svg version="1.1" id="Layer_1" xmlns="http://www.w3.org/2000/svg" xmlns:xlink="http://www.w3.org/1999/xlink" 
	 viewBox="0 0 512 512" xml:space="preserve">
<path style="fill:#F4F4F4;" d="M478.325,453.288H33.676c-11.34,0-20.533-9.193-20.533-20.533l0,0
	c0-11.34,9.193-20.533,20.533-20.533h444.649c11.34,0,20.533,9.193,20.533,20.533l0,0
	C498.858,444.095,489.664,453.288,478.325,453.288z"/>
<path style="fill:#D9D9DB;" d="M403.116,512H110.698c-32.425,0-58.711-26.286-58.711-58.711l0,0h409.841l0,0
	C461.827,485.714,435.541,512,403.116,512z"/>
<path style="fill:#C8C6CD;" d="M446.463,453.288h-49.775H110.144l267.491,20.798c7.479,0.581,11.325,9.251,6.726,15.176
	c-10.737,13.832-27.518,22.737-46.386,22.737h65.14c32.425,0,58.711-26.286,58.711-58.711H446.463z"/>
<g>
	<path style="fill:#F9DE8F;" d="M396.428,391.924H110.144v-36.768c0-2.113,1.713-3.826,3.826-3.826H392.6
		c2.113,0,3.826,1.713,3.826,3.826v36.768H396.428z"/>
	<path style="fill:#F9DE8F;" d="M378.853,284.067H127.72c-9.707,0-17.575-7.869-17.575-17.575v-14.006
		c0-49.461,40.096-89.555,89.555-89.555h107.172c49.461,0,89.555,40.096,89.555,89.555v14.006
		C396.428,276.198,388.559,284.067,378.853,284.067z"/>
</g>
<rect x="110.145" y="391.93" style="fill:#F7CF6D;" width="286.287" height="20.298"/>
<path style="fill:#F09EA0;" d="M392.813,351.33H112.828c-12.383,0-22.422-10.038-22.422-22.422l0,0
	c0-12.383,10.038-22.422,22.422-22.422h279.985c12.383,0,22.422,10.038,22.422,22.422l0,0
	C415.235,341.292,405.196,351.33,392.813,351.33z"/>
<g>
	<path style="fill:#F7CF6D;" d="M392.602,351.33h-29.265c2.113,0,3.826,1.713,3.826,3.826v36.768h29.265v-36.768
		C396.428,353.043,394.715,351.33,392.602,351.33z"/>
	<path style="fill:#F7CF6D;" d="M306.873,162.929h-29.265c49.461,0,89.555,40.096,89.555,89.555v14.006
		c0,9.707-7.869,17.575-17.575,17.575h29.265c9.707,0,17.575-7.869,17.575-17.575v-14.006
		C396.428,203.025,356.332,162.929,306.873,162.929z"/>
</g>
<rect x="367.162" y="391.93" style="fill:#F4C356;" width="29.265" height="20.298"/>
<path style="fill:#EF8990;" d="M392.813,306.488h-29.265c12.383,0,22.422,10.038,22.422,22.422l0,0
	c0,12.383-10.038,22.422-22.422,22.422h29.265c12.383,0,22.422-10.038,22.422-22.422l0,0
	C415.235,316.526,405.196,306.488,392.813,306.488z"/>
<rect x="132.093" y="284.067" style="fill:#59D3C4;" width="241.456" height="22.422"/>
<path style="fill:#F9DE8F;" d="M169.031,306.488c2.764,5.382,6.468,9.681,10.737,11.801c7.368,3.659,12.437-1.142,28.793,2.36
	c13.823,2.96,13.767,7.151,24.074,8.969c17.864,3.152,22.398-8.671,43.898-9.44c15.975-0.572,15.672,5.877,36.818,7.08
	c13.662,0.778,31.143,1.772,40.594-9.44c2.623-3.112,4.544-7.081,5.611-11.329H169.031z"/>
<g>
	<path style="fill:#F4F4F4;" d="M165.135,284.067v51.215c0,4.413,3.611,8.024,8.025,8.024c4.413,0,8.025-3.611,8.025-8.024v-35.586
		c0-4.413,3.611-8.025,8.025-8.025c4.413,0,8.025,3.611,8.025,8.025v6.085c0,4.413,3.611,8.025,8.025,8.025
		c4.413,0,8.025-3.611,8.025-8.025v-21.713H165.135z"/>
	<path style="fill:#F4F4F4;" d="M332.586,284.067v11.21c0,4.413,3.611,8.024,8.025,8.024c4.413,0,8.025-3.611,8.025-8.024v-11.21
		H332.586z"/>
</g>
<g>
	<circle style="fill:#F7CF6D;" cx="177.272" cy="204.165" r="8.235"/>
	<circle style="fill:#F7CF6D;" cx="153.752" cy="231.732" r="8.235"/>
	<circle style="fill:#F7CF6D;" cx="199.375" cy="231.732" r="8.235"/>
</g>
<path style="fill:#E1E1E3;" d="M252.221,80.03c-4.973,0-9.005-4.032-9.005-9.005V35.116c0-4.973,4.032-9.005,9.005-9.005
	c4.973,0,9.005,4.032,9.005,9.005v35.909C261.225,75.998,257.194,80.03,252.221,80.03z"/>
<path style="fill:#D9D9DB;" d="M273.796,162.929h-41.951V74.996c0-3.434,2.784-6.218,6.218-6.218h29.515
	c3.434,0,6.218,2.784,6.218,6.218V162.929z"/>
<path style="fill:#EDA156;" d="M270.418,25.45c0,9.719-7.878,17.597-17.597,17.597s-17.597-7.878-17.597-17.597
	c0-6.356,7.528-16.721,12.736-23.131c2.512-3.092,7.211-3.092,9.723,0C262.891,8.729,270.418,19.094,270.418,25.45z"/>
</svg>